# This file uses centimeters as units for non-parametric coordinates.

mtllib Shelves_Stand_OBJ.mtl
g default
v 33.393402 0.000000 11.540133
v 36.690582 0.000000 11.540133
v 33.393402 0.000000 -11.540133
v 36.690582 0.000000 -11.540133
v 33.393402 197.830856 11.540161
v 36.690582 197.830856 11.540161
v 33.393402 197.830856 -11.540161
v 36.690582 197.830856 -11.540161
v -33.393394 0.000000 11.540133
v -33.393394 0.000000 -11.540133
v -36.690582 0.000000 -11.540133
v -36.690582 0.000000 11.540133
v -33.393394 197.830856 11.540161
v -36.690582 197.830856 11.540161
v -36.690582 197.830856 -11.540161
v -33.393394 197.830856 -11.540161
v 34.662521 176.844406 10.570007
v 34.662521 180.141586 10.570007
v 34.662521 176.844406 -11.521057
v 34.662521 180.141586 -11.521057
v -34.578278 176.844406 10.570007
v -34.578278 180.141586 10.570007
v -34.578278 176.844406 -11.521057
v -34.578278 180.141586 -11.521057
v 34.662521 155.861145 10.570038
v 34.662521 159.158325 10.570038
v 34.662521 155.861145 -11.521088
v 34.662521 159.158325 -11.521088
v -34.578278 155.861145 10.570038
v -34.578278 159.158325 10.570038
v -34.578278 155.861145 -11.521088
v -34.578278 159.158325 -11.521088
v 34.662521 134.877869 10.570038
v 34.662521 138.175079 10.570038
v 34.662521 134.877884 -11.521088
v 34.662521 138.175064 -11.521088
v -34.578278 134.877869 10.570038
v -34.578278 138.175079 10.570038
v -34.578278 134.877884 -11.521088
v -34.578278 138.175064 -11.521088
v 34.662521 113.894623 10.570038
v 34.662521 117.191803 10.570038
v 34.662521 113.894623 -11.521088
v 34.662521 117.191803 -11.521088
v -34.578270 113.894623 10.570038
v -34.578270 117.191803 10.570038
v -34.578270 113.894623 -11.521088
v -34.578270 117.191803 -11.521088
v 34.662521 92.911354 10.570038
v 34.662521 96.208542 10.570038
v 34.662521 92.911354 -11.521088
v 34.662521 96.208534 -11.521088
v -34.578270 92.911354 10.570038
v -34.578270 96.208542 10.570038
v -34.578270 92.911354 -11.521088
v -34.578270 96.208534 -11.521088
v 34.662521 71.928101 10.570023
v 34.662521 75.225281 10.570023
v 34.662521 71.928101 -11.521088
v 34.662521 75.225281 -11.521088
v -34.578278 71.928101 10.570023
v -34.578278 75.225281 10.570023
v -34.578278 71.928101 -11.521088
v -34.578278 75.225281 -11.521088
v 34.662521 50.944843 10.570023
v 34.662521 54.242031 10.570023
v 34.662521 50.944847 -11.521088
v 34.662521 54.242027 -11.521088
v -34.578278 50.944843 10.570023
v -34.578278 54.242031 10.570023
v -34.578278 50.944847 -11.521088
v -34.578278 54.242027 -11.521088
v 34.662529 29.961582 10.570023
v 34.662529 33.258766 10.570023
v 34.662529 29.961582 -11.521088
v 34.662529 33.258762 -11.521088
v -34.578278 29.961582 10.570023
v -34.578278 33.258766 10.570023
v -34.578278 29.961582 -11.521088
v -34.578278 33.258762 -11.521088
v 34.662521 8.978317 10.570023
v 34.662521 12.275497 10.570023
v 34.662521 8.978317 -11.521088
v 34.662521 12.275499 -11.521088
v -34.578285 8.978317 10.570023
v -34.578285 12.275497 10.570023
v -34.578285 8.978317 -11.521088
v -34.578285 12.275499 -11.521088
v 36.690582 197.830856 11.540161
v 36.690582 201.128036 11.540161
v 36.690582 197.830872 -11.540161
v 36.690582 201.128052 -11.540161
v -36.690582 197.830856 11.540161
v -36.690582 201.128036 11.540161
v -36.690582 197.830872 -11.540161
v -36.690582 201.128052 -11.540161
vt 0.000500 0.398225
vt 0.000500 0.312035
vt 0.739274 0.312035
vt 0.739274 0.398225
vt 0.000500 0.299722
vt 0.739273 0.299722
vt 0.843519 0.488128
vt 0.843519 0.401937
vt 0.855832 0.401937
vt 0.855832 0.488128
vt 0.811228 0.602656
vt 0.811228 0.688847
vt 0.798915 0.688847
vt 0.798915 0.602656
vt 0.000500 0.099003
vt 0.000500 0.086690
vt 0.739273 0.086690
vt 0.739273 0.099003
vt 0.000500 0.185193
vt 0.739273 0.185193
vt 0.000500 0.213532
vt 0.739273 0.213532
vt 0.000500 0.201219
vt 0.739273 0.201219
vt 0.870281 0.401937
vt 0.882594 0.401937
vt 0.882594 0.488128
vt 0.870281 0.488128
vt 0.000500 0.000500
vt 0.739273 0.000500
vt 0.000500 0.197506
vt 0.739273 0.197506
vt 0.856900 0.401937
vt 0.869213 0.401937
vt 0.869213 0.488128
vt 0.856900 0.488128
vt 0.259071 0.876951
vt 0.259071 0.889264
vt 0.000500 0.889263
vt 0.000500 0.876951
vt 0.259071 0.971760
vt 0.000500 0.971760
vt 0.259071 0.984073
vt 0.000500 0.984073
vt 0.259071 0.794454
vt 0.000500 0.794454
vt 0.544537 0.484434
vt 0.544537 0.496747
vt 0.285967 0.496747
vt 0.285967 0.484434
vt 0.544537 0.579243
vt 0.285967 0.579243
vt 0.544537 0.591556
vt 0.285967 0.591556
vt 0.544537 0.401937
vt 0.285967 0.401937
vt 0.999500 0.283715
vt 0.999500 0.296028
vt 0.740929 0.296028
vt 0.740929 0.283715
vt 0.999500 0.378524
vt 0.740929 0.378524
vt 0.999500 0.390837
vt 0.740929 0.390837
vt 0.999500 0.201219
vt 0.740929 0.201219
vt 0.526696 0.685153
vt 0.526696 0.697466
vt 0.268125 0.697466
vt 0.268125 0.685153
vt 0.526696 0.779962
vt 0.268125 0.779962
vt 0.526696 0.792275
vt 0.268125 0.792275
vt 0.526696 0.602656
vt 0.268125 0.602656
vt 0.526696 0.876951
vt 0.526696 0.889264
vt 0.268125 0.889264
vt 0.268125 0.876951
vt 0.526696 0.971760
vt 0.268125 0.971760
vt 0.526696 0.984073
vt 0.268125 0.984073
vt 0.526696 0.794454
vt 0.268125 0.794454
vt 0.794321 0.676232
vt 0.794321 0.688545
vt 0.535750 0.688545
vt 0.535750 0.676232
vt 0.794321 0.771041
vt 0.535750 0.771041
vt 0.794321 0.783354
vt 0.535750 0.783354
vt 0.794321 0.593735
vt 0.535750 0.593735
vt 0.999500 0.082996
vt 0.999500 0.095309
vt 0.740929 0.095309
vt 0.740929 0.082996
vt 0.999500 0.177805
vt 0.740929 0.177805
vt 0.999500 0.190118
vt 0.740929 0.190118
vt 0.999500 0.000500
vt 0.740929 0.000500
vt 0.259071 0.685153
vt 0.259071 0.697466
vt 0.000500 0.697466
vt 0.000500 0.685153
vt 0.259071 0.779962
vt 0.000500 0.779962
vt 0.259071 0.792275
vt 0.000500 0.792275
vt 0.259071 0.602656
vt 0.000500 0.602656
vt 0.812162 0.484434
vt 0.812162 0.496747
vt 0.553592 0.496747
vt 0.553592 0.484434
vt 0.812162 0.579243
vt 0.553592 0.579243
vt 0.812162 0.591556
vt 0.553592 0.591556
vt 0.812162 0.401937
vt 0.553592 0.401937
vt 0.842450 0.401937
vt 0.842450 0.488128
vt 0.830138 0.488128
vt 0.830138 0.401937
vt 0.829069 0.488128
vt 0.816756 0.488128
vt 0.816756 0.401937
vt 0.829069 0.401937
vt 0.274532 0.488128
vt 0.274532 0.500441
vt 0.000500 0.500441
vt 0.000500 0.488128
vt 0.274532 0.586631
vt 0.000500 0.586631
vt 0.274532 0.598944
vt 0.000500 0.598944
vt 0.274532 0.401937
vt 0.000500 0.401937
vn -0.577350 -0.577350 0.577350
vn -0.577350 -0.577350 -0.577350
vn 0.577350 -0.577350 -0.577350
vn 0.577350 -0.577350 0.577350
vn -0.577350 0.577350 0.577350
vn 0.577350 0.577350 0.577350
vn 0.577350 0.577350 -0.577350
vn -0.577350 0.577350 -0.577350
vn -0.577350 -0.577350 0.577350
vn 0.577350 -0.577350 0.577350
vn 0.577350 0.577350 0.577350
vn -0.577350 0.577350 0.577350
vn 0.577350 -0.577350 0.577350
vn 0.577350 -0.577350 -0.577350
vn 0.577350 0.577350 -0.577350
vn 0.577350 0.577350 0.577350
vn 0.577350 -0.577350 -0.577350
vn -0.577350 -0.577350 -0.577350
vn -0.577350 0.577350 -0.577350
vn 0.577350 0.577350 -0.577350
vn -0.577350 -0.577350 -0.577350
vn -0.577350 -0.577350 0.577350
vn -0.577350 0.577350 0.577350
vn -0.577350 0.577350 -0.577350
vn 0.577350 -0.577350 0.577350
vn -0.577350 -0.577350 0.577350
vn -0.577350 -0.577350 -0.577350
vn 0.577350 -0.577350 -0.577350
vn 0.577350 0.577350 0.577350
vn 0.577350 0.577350 -0.577350
vn -0.577350 0.577350 -0.577350
vn -0.577350 0.577350 0.577350
vn 0.577350 -0.577350 0.577350
vn 0.577350 0.577350 0.577350
vn -0.577350 0.577350 0.577350
vn -0.577350 -0.577350 0.577350
vn -0.577350 -0.577350 0.577350
vn -0.577350 0.577350 0.577350
vn -0.577350 0.577350 -0.577350
vn -0.577350 -0.577350 -0.577350
vn -0.577350 -0.577350 -0.577350
vn -0.577350 0.577350 -0.577350
vn 0.577350 0.577350 -0.577350
vn 0.577350 -0.577350 -0.577350
vn 0.577350 -0.577350 -0.577350
vn 0.577350 0.577350 -0.577350
vn 0.577350 0.577350 0.577350
vn 0.577350 -0.577350 0.577350
vn 0.000000 -0.707107 0.707107
vn 0.000000 0.707107 0.707107
vn 0.000000 0.707107 0.707107
vn 0.000000 -0.707107 0.707107
vn 0.000000 0.707107 0.707107
vn 0.000000 0.707107 -0.707107
vn 0.000000 0.707107 -0.707107
vn 0.000000 0.707107 0.707107
vn 0.000000 0.707107 -0.707107
vn 0.000000 -0.707107 -0.707107
vn 0.000000 -0.707107 -0.707107
vn 0.000000 0.707107 -0.707107
vn 0.000000 -0.707107 -0.707107
vn 0.000000 -0.707107 0.707107
vn 0.000000 -0.707107 0.707107
vn 0.000000 -0.707107 -0.707107
vn 0.000000 -0.707107 0.707107
vn 0.000000 0.707107 0.707107
vn 0.000000 0.707107 0.707107
vn 0.000000 -0.707107 0.707107
vn 0.000000 0.707107 0.707107
vn 0.000000 0.707107 -0.707107
vn 0.000000 0.707107 -0.707107
vn 0.000000 0.707107 0.707107
vn 0.000000 0.707107 -0.707107
vn 0.000000 -0.707107 -0.707107
vn 0.000000 -0.707107 -0.707107
vn 0.000000 0.707107 -0.707107
vn 0.000000 -0.707107 -0.707107
vn 0.000000 -0.707107 0.707107
vn 0.000000 -0.707107 0.707107
vn 0.000000 -0.707107 -0.707107
vn 0.000000 -0.707107 0.707107
vn 0.000000 0.707107 0.707107
vn 0.000000 0.707107 0.707107
vn 0.000000 -0.707107 0.707107
vn 0.000000 0.707107 0.707107
vn 0.000000 0.707107 -0.707107
vn 0.000000 0.707107 -0.707107
vn 0.000000 0.707107 0.707107
vn 0.000000 0.707107 -0.707107
vn 0.000000 -0.707107 -0.707107
vn 0.000000 -0.707107 -0.707107
vn 0.000000 0.707107 -0.707107
vn 0.000000 -0.707107 -0.707107
vn 0.000000 -0.707107 0.707107
vn 0.000000 -0.707107 0.707107
vn 0.000000 -0.707107 -0.707107
vn 0.000000 -0.707107 0.707107
vn 0.000000 0.707107 0.707107
vn 0.000000 0.707107 0.707107
vn 0.000000 -0.707107 0.707107
vn 0.000000 0.707107 0.707107
vn 0.000000 0.707107 -0.707107
vn 0.000000 0.707107 -0.707107
vn 0.000000 0.707107 0.707107
vn 0.000000 0.707107 -0.707107
vn 0.000000 -0.707107 -0.707107
vn 0.000000 -0.707107 -0.707107
vn 0.000000 0.707107 -0.707107
vn 0.000000 -0.707107 -0.707107
vn 0.000000 -0.707107 0.707107
vn 0.000000 -0.707107 0.707107
vn 0.000000 -0.707107 -0.707107
vn 0.000000 -0.707107 0.707107
vn 0.000000 0.707107 0.707107
vn 0.000000 0.707107 0.707107
vn 0.000000 -0.707107 0.707107
vn 0.000000 0.707107 0.707107
vn 0.000000 0.707107 -0.707107
vn 0.000000 0.707107 -0.707107
vn 0.000000 0.707107 0.707107
vn 0.000000 0.707107 -0.707107
vn 0.000000 -0.707107 -0.707107
vn 0.000000 -0.707107 -0.707107
vn 0.000000 0.707107 -0.707107
vn 0.000000 -0.707107 -0.707107
vn 0.000000 -0.707107 0.707107
vn 0.000000 -0.707107 0.707107
vn 0.000000 -0.707107 -0.707107
vn 0.000000 -0.707107 0.707107
vn 0.000000 0.707107 0.707107
vn 0.000000 0.707107 0.707107
vn 0.000000 -0.707107 0.707107
vn 0.000000 0.707107 0.707107
vn 0.000000 0.707107 -0.707107
vn 0.000000 0.707107 -0.707107
vn 0.000000 0.707107 0.707107
vn 0.000000 0.707107 -0.707107
vn 0.000000 -0.707107 -0.707107
vn 0.000000 -0.707107 -0.707107
vn 0.000000 0.707107 -0.707107
vn 0.000000 -0.707107 -0.707107
vn 0.000000 -0.707107 0.707107
vn 0.000000 -0.707107 0.707107
vn 0.000000 -0.707107 -0.707107
vn 0.000000 -0.707107 0.707107
vn 0.000000 0.707107 0.707107
vn 0.000000 0.707107 0.707107
vn 0.000000 -0.707107 0.707107
vn 0.000000 0.707107 0.707107
vn 0.000000 0.707107 -0.707107
vn 0.000000 0.707107 -0.707107
vn 0.000000 0.707107 0.707107
vn 0.000000 0.707107 -0.707107
vn 0.000000 -0.707107 -0.707107
vn 0.000000 -0.707107 -0.707107
vn 0.000000 0.707107 -0.707107
vn 0.000000 -0.707107 -0.707107
vn 0.000000 -0.707107 0.707107
vn 0.000000 -0.707107 0.707107
vn 0.000000 -0.707107 -0.707107
vn 0.000000 -0.707107 0.707107
vn 0.000000 0.707107 0.707107
vn 0.000000 0.707107 0.707107
vn 0.000000 -0.707107 0.707107
vn 0.000000 0.707107 0.707107
vn 0.000000 0.707107 -0.707107
vn 0.000000 0.707107 -0.707107
vn 0.000000 0.707107 0.707107
vn 0.000000 0.707107 -0.707107
vn 0.000000 -0.707107 -0.707107
vn 0.000000 -0.707107 -0.707107
vn 0.000000 0.707107 -0.707107
vn 0.000000 -0.707107 -0.707107
vn 0.000000 -0.707107 0.707107
vn 0.000000 -0.707107 0.707107
vn 0.000000 -0.707107 -0.707107
vn 0.000000 -0.707107 0.707107
vn 0.000000 0.707107 0.707107
vn 0.000000 0.707107 0.707107
vn 0.000000 -0.707107 0.707107
vn 0.000000 0.707107 0.707107
vn 0.000000 0.707107 -0.707107
vn 0.000000 0.707107 -0.707107
vn 0.000000 0.707107 0.707107
vn 0.000000 0.707107 -0.707107
vn 0.000000 -0.707107 -0.707107
vn 0.000000 -0.707107 -0.707107
vn 0.000000 0.707107 -0.707107
vn 0.000000 -0.707107 -0.707107
vn 0.000000 -0.707107 0.707107
vn 0.000000 -0.707107 0.707107
vn 0.000000 -0.707107 -0.707107
vn 0.577350 -0.577351 0.577350
vn 0.577350 -0.577350 -0.577351
vn 0.577350 0.577351 -0.577350
vn 0.577350 0.577350 0.577350
vn -0.577350 -0.577351 0.577350
vn -0.577350 0.577350 0.577351
vn -0.577350 0.577351 -0.577350
vn -0.577350 -0.577350 -0.577350
vn 0.577350 -0.577351 0.577350
vn 0.577350 0.577350 0.577350
vn -0.577350 0.577350 0.577351
vn -0.577350 -0.577351 0.577350
vn 0.577350 0.577350 0.577350
vn 0.577350 0.577351 -0.577350
vn -0.577350 0.577351 -0.577350
vn -0.577350 0.577350 0.577351
vn 0.577350 0.577351 -0.577350
vn 0.577350 -0.577350 -0.577351
vn -0.577350 -0.577350 -0.577350
vn -0.577350 0.577351 -0.577350
vn 0.577350 -0.577350 -0.577351
vn 0.577350 -0.577351 0.577350
vn -0.577350 -0.577351 0.577350
vn -0.577350 -0.577350 -0.577350
s off
g low
usemtl initialShadingGroup
f 1/7/1 3/8/2 4/9/3 2/10/4
f 5/25/5 6/26/6 8/27/7 7/28/8
f 1/2/9 2/5/10 6/6/11 5/3/12
f 2/5/13 4/21/14 8/22/15 6/6/16
f 4/21/17 3/23/18 7/24/19 8/22/20
f 3/1/21 1/2/22 5/3/23 7/4/24
f 9/12/25 12/13/26 11/14/27 10/11/28
f 13/34/29 16/35/30 15/36/31 14/33/32
f 9/16/33 13/17/34 14/18/35 12/15/36
f 12/15/37 14/18/38 15/20/39 11/19/40
f 11/19/41 15/20/42 16/32/43 10/31/44
f 10/29/45 16/30/46 13/17/47 9/16/48
f 17/37/49 18/38/50 22/39/51 21/40/52
f 18/38/53 20/41/54 24/42/55 22/39/56
f 20/41/57 19/43/58 23/44/59 24/42/60
f 19/45/61 17/37/62 21/40/63 23/46/64
f 25/47/65 26/48/66 30/49/67 29/50/68
f 26/48/69 28/51/70 32/52/71 30/49/72
f 28/51/73 27/53/74 31/54/75 32/52/76
f 27/55/77 25/47/78 29/50/79 31/56/80
f 33/57/81 34/58/82 38/59/83 37/60/84
f 34/58/85 36/61/86 40/62/87 38/59/88
f 36/61/89 35/63/90 39/64/91 40/62/92
f 35/65/93 33/57/94 37/60/95 39/66/96
f 41/67/97 42/68/98 46/69/99 45/70/100
f 42/68/101 44/71/102 48/72/103 46/69/104
f 44/71/105 43/73/106 47/74/107 48/72/108
f 43/75/109 41/67/110 45/70/111 47/76/112
f 49/77/113 50/78/114 54/79/115 53/80/116
f 50/78/117 52/81/118 56/82/119 54/79/120
f 52/81/121 51/83/122 55/84/123 56/82/124
f 51/85/125 49/77/126 53/80/127 55/86/128
f 57/87/129 58/88/130 62/89/131 61/90/132
f 58/88/133 60/91/134 64/92/135 62/89/136
f 60/91/137 59/93/138 63/94/139 64/92/140
f 59/95/141 57/87/142 61/90/143 63/96/144
f 65/97/145 66/98/146 70/99/147 69/100/148
f 66/98/149 68/101/150 72/102/151 70/99/152
f 68/101/153 67/103/154 71/104/155 72/102/156
f 67/105/157 65/97/158 69/100/159 71/106/160
f 73/107/161 74/108/162 78/109/163 77/110/164
f 74/108/165 76/111/166 80/112/167 78/109/168
f 76/111/169 75/113/170 79/114/171 80/112/172
f 75/115/173 73/107/174 77/110/175 79/116/176
f 81/117/177 82/118/178 86/119/179 85/120/180
f 82/118/181 84/121/182 88/122/183 86/119/184
f 84/121/185 83/123/186 87/124/187 88/122/188
f 83/125/189 81/117/190 85/120/191 87/126/192
f 89/127/193 91/128/194 92/129/195 90/130/196
f 93/131/197 94/132/198 96/133/199 95/134/200
f 89/135/201 90/136/202 94/137/203 93/138/204
f 90/136/205 92/139/206 96/140/207 94/137/208
f 92/139/209 91/141/210 95/142/211 96/140/212
f 91/143/213 89/135/214 93/138/215 95/144/216
